<svg width="16" height="16" viewBox="0 0 16 16" fill="none" xmlns="http://www.w3.org/2000/svg">
<path fill-rule="evenodd" clip-rule="evenodd" d="M8 4.25C7.00544 4.25 6.05161 4.64509 5.34835 5.34835C4.64509 6.05161 4.25 7.00544 4.25 8C4.25 8.99456 4.64509 9.94839 5.34835 10.6517C6.05161 11.3549 7.00544 11.75 8 11.75C8.99456 11.75 9.94839 11.3549 10.6517 10.6517C11.3549 9.94839 11.75 8.99456 11.75 8C11.75 7.00544 11.3549 6.05161 10.6517 5.34835C9.94839 4.64509 8.99456 4.25 8 4.25ZM5.75 8C5.75 7.40326 5.98705 6.83097 6.40901 6.40901C6.83097 5.98705 7.40326 5.75 8 5.75C8.59674 5.75 9.16903 5.98705 9.59099 6.40901C10.0129 6.83097 10.25 7.40326 10.25 8C10.25 8.59674 10.0129 9.16903 9.59099 9.59099C9.16903 10.0129 8.59674 10.25 8 10.25C7.40326 10.25 6.83097 10.0129 6.40901 9.59099C5.98705 9.16903 5.75 8.59674 5.75 8Z" fill="#190041"/>
<path d="M11.125 3.5C11.125 3.40054 11.1645 3.30516 11.2348 3.23483C11.3052 3.16451 11.4005 3.125 11.5 3.125H11.9995C12.099 3.125 12.1943 3.16451 12.2647 3.23483C12.335 3.30516 12.3745 3.40054 12.3745 3.5V4.00025C12.3745 4.09971 12.335 4.19509 12.2647 4.26542C12.1943 4.33574 12.099 4.37525 11.9995 4.37525H11.5C11.4005 4.37525 11.3052 4.33574 11.2348 4.26542C11.1645 4.19509 11.125 4.09971 11.125 4.00025V3.5Z" fill="#190041"/>
<path fill-rule="evenodd" clip-rule="evenodd" d="M5.76775 0.25H10.2318C11.0448 0.25 11.7003 0.25 12.2313 0.2935C12.778 0.3385 13.258 0.43225 13.702 0.65875C14.4076 1.01827 14.9812 1.59192 15.3407 2.2975C15.5673 2.7415 15.6617 3.2215 15.7067 3.76825C15.7495 4.29925 15.7495 4.95475 15.7495 5.76775V10.2318C15.7495 11.0448 15.7495 11.7003 15.7067 12.2313C15.6617 12.778 15.5673 13.2588 15.3407 13.702C14.9812 14.4076 14.4076 14.9812 13.702 15.3407C13.258 15.5673 12.778 15.6617 12.2313 15.7067C11.7003 15.7495 11.0448 15.7495 10.2318 15.7495H5.76775C4.95475 15.7495 4.29925 15.7495 3.76825 15.7067C3.2215 15.6617 2.7415 15.5673 2.2975 15.3407C1.59192 14.9812 1.01827 14.4076 0.65875 13.702C0.43225 13.258 0.33775 12.778 0.29275 12.2313C0.25 11.7003 0.25 11.0448 0.25 10.2318V5.76775C0.25 4.95475 0.25 4.29925 0.29275 3.76825C0.33775 3.2215 0.43225 2.7415 0.65875 2.2975C1.01827 1.59192 1.59192 1.01827 2.2975 0.65875C2.7415 0.43225 3.2215 0.33775 3.76825 0.2935C4.29925 0.25 4.95475 0.25 5.76775 0.25ZM3.8905 1.7875C3.43675 1.825 3.17575 1.89475 2.9785 1.99525C2.55527 2.21077 2.21109 2.55468 1.99525 2.97775C1.894 3.17575 1.825 3.43675 1.78825 3.8905C1.75075 4.35325 1.75 4.948 1.75 5.8V10.1995C1.75 11.0523 1.75 11.647 1.7875 12.109C1.825 12.5627 1.894 12.8237 1.99525 13.021C2.21077 13.4442 2.55468 13.7884 2.97775 14.0043C3.17575 14.1055 3.43675 14.1745 3.8905 14.2113C4.35325 14.2487 4.94725 14.2495 5.8 14.2495H10.1995C11.0523 14.2495 11.647 14.2495 12.109 14.212C12.5627 14.1745 12.8237 14.1055 13.021 14.0043C13.4442 13.7887 13.7884 13.4448 14.0043 13.0217C14.1048 12.8237 14.1745 12.5627 14.2113 12.109C14.2487 11.6462 14.2495 11.0523 14.2495 10.1995V5.8C14.2495 4.94725 14.2495 4.3525 14.212 3.8905C14.1745 3.43675 14.1048 3.17575 14.0043 2.9785C13.7887 2.55527 13.4448 2.21109 13.0217 1.99525C12.8237 1.89475 12.5627 1.825 12.109 1.78825C11.6462 1.75075 11.0515 1.75 10.1995 1.75H5.8C4.94725 1.75 4.3525 1.75 3.8905 1.7875Z" fill="#190041"/>
</svg>
