<svg width="17" height="17" viewBox="0 0 17 17" fill="none" xmlns="http://www.w3.org/2000/svg">
<path fill-rule="evenodd" clip-rule="evenodd" d="M0.25 2.5C0.25 1.90326 0.487053 1.33097 0.90901 0.909009C1.33097 0.487053 1.90326 0.25 2.5 0.25C3.09674 0.25 3.66903 0.487053 4.09099 0.909009C4.51295 1.33097 4.75 1.90326 4.75 2.5C4.75 3.09674 4.51295 3.66903 4.09099 4.09099C3.66903 4.51295 3.09674 4.75 2.5 4.75C1.90326 4.75 1.33097 4.51295 0.90901 4.09099C0.487053 3.66903 0.25 3.09674 0.25 2.5ZM2.5 2.25025C2.43366 2.25025 2.37004 2.2766 2.32314 2.32351C2.27623 2.37042 2.24988 2.43404 2.24988 2.50037C2.24988 2.56671 2.27623 2.63033 2.32314 2.67724C2.37004 2.72415 2.43366 2.7505 2.5 2.7505C2.56634 2.7505 2.62996 2.72415 2.67687 2.67724C2.72377 2.63033 2.75012 2.56671 2.75012 2.50037C2.75012 2.43404 2.72377 2.37042 2.67687 2.32351C2.62996 2.2766 2.56634 2.25025 2.5 2.25025ZM0.25 7C0.25 6.80109 0.329018 6.61032 0.46967 6.46967C0.610322 6.32902 0.801088 6.25 1 6.25H4C4.19891 6.25 4.38968 6.32902 4.53033 6.46967C4.67098 6.61032 4.75 6.80109 4.75 7V16C4.75 16.1989 4.67098 16.3897 4.53033 16.5303C4.38968 16.671 4.19891 16.75 4 16.75H1C0.801088 16.75 0.610322 16.671 0.46967 16.5303C0.329018 16.3897 0.25 16.1989 0.25 16V7ZM1.75 7.75V15.25H3.25V7.75H1.75ZM7.69675 7.5025C8.64475 6.6595 9.96625 6.25 11.4993 6.25C13.033 6.25 14.3552 6.6595 15.3025 7.5025C16.2625 8.3545 16.75 9.5725 16.75 11.0005V16C16.75 16.1989 16.671 16.3897 16.5303 16.5303C16.3897 16.671 16.1989 16.75 16 16.75H13C12.8011 16.75 12.6103 16.671 12.4697 16.5303C12.329 16.3897 12.25 16.1989 12.25 16V12.0002C12.25 11.7422 12.2492 11.5308 12.2297 11.3403C12.211 11.1513 12.1772 11.0335 12.1412 10.9608C12.1171 10.9068 12.0745 10.8633 12.0212 10.8378C11.9492 10.8003 11.7963 10.75 11.5 10.75C11.203 10.75 11.05 10.8003 10.978 10.8378C10.9247 10.8633 10.8822 10.9068 10.858 10.9608C10.8213 11.0335 10.7883 11.1513 10.7695 11.3403C10.7524 11.5598 10.7459 11.7801 10.75 12.0002V16C10.75 16.1989 10.671 16.3897 10.5303 16.5303C10.3897 16.671 10.1989 16.75 10 16.75H7C6.80109 16.75 6.61032 16.671 6.46967 16.5303C6.32902 16.3897 6.25 16.1989 6.25 16V11.0005C6.25 9.5725 6.7375 8.3545 7.69675 7.5025ZM8.6935 8.62375C8.1055 9.14575 7.75 9.928 7.75 11.0005V15.25H9.25V11.9313C9.2485 11.4865 9.24775 10.8272 9.51625 10.2895C9.68237 9.95238 9.95274 9.6778 10.2872 9.5065C10.6367 9.325 11.0462 9.25 11.5 9.25C11.953 9.25 12.3625 9.325 12.712 9.5065C13.075 9.694 13.324 9.97225 13.483 10.2895C13.7515 10.8272 13.7508 11.4865 13.75 11.9313V15.25H15.25V11.0005C15.25 9.928 14.8938 9.14575 14.3058 8.623C13.7073 8.0905 12.7788 7.75 11.5 7.75C10.2205 7.75 9.29275 8.0905 8.6935 8.62375Z" fill="#190041"/>
</svg>
