<svg width="16" height="14" viewBox="0 0 16 14" fill="none" xmlns="http://www.w3.org/2000/svg">
<path fill-rule="evenodd" clip-rule="evenodd" d="M13.166 1.12756C12.1783 0.265056 10.799 0.00255543 9.55475 0.501305C8.1695 1.05631 7.27625 2.42581 7.25075 3.92881C5.5205 3.75406 3.92225 2.79406 2.89625 1.25881C2.82104 1.14636 2.71681 1.05636 2.59461 0.998325C2.47241 0.94029 2.33679 0.916387 2.20212 0.929147C2.06744 0.941908 1.93873 0.990857 1.8296 1.07081C1.72048 1.15076 1.63501 1.25874 1.58225 1.38331L1.5815 1.38556L1.58075 1.38706L1.57775 1.39306L1.57025 1.41181L1.5455 1.47406C1.42305 1.80283 1.31962 2.13839 1.23575 2.47906C1.076 3.13156 0.923001 4.04131 0.966501 5.05156C1.01075 6.06481 1.253 7.1973 1.89875 8.26905C2.366 9.04455 3.03125 9.7668 3.94625 10.3811C3.03386 10.8014 2.03471 10.999 1.031 10.9578C0.863671 10.9509 0.698843 11.0002 0.56278 11.0978C0.426718 11.1955 0.327252 11.3359 0.28023 11.4966C0.233209 11.6573 0.241338 11.8292 0.303322 11.9848C0.365307 12.1403 0.47758 12.2707 0.622251 12.3551C3.6965 14.1498 7.109 14.1701 9.7715 12.6416C12.4115 11.1266 14.207 8.14981 14.249 4.14556C14.282 4.08256 14.3285 3.99706 14.3885 3.89056C14.4635 3.75556 14.546 3.61306 14.6353 3.45631C14.7178 3.31231 14.8078 3.15631 14.903 2.98756C15.0913 2.65381 15.2885 2.29606 15.44 1.98481C15.515 1.82956 15.5855 1.67356 15.6388 1.53031C15.7058 1.36355 15.7433 1.18641 15.7498 1.00681C15.7498 0.809699 15.6722 0.620508 15.5338 0.480154C15.3954 0.339799 15.2073 0.259565 15.0103 0.256805C14.7013 0.253055 14.426 0.369305 14.24 0.462305C14.0282 0.573354 13.8234 0.697079 13.6265 0.832805C13.451 0.947555 13.3003 1.04806 13.166 1.12756ZM2.6 3.25606C2.48842 3.82567 2.44312 4.40628 2.465 4.9863C2.50025 5.81205 2.69525 6.68581 3.18275 7.49431C3.6665 8.29681 4.463 9.07831 5.771 9.68956C5.88974 9.74499 5.99189 9.83057 6.06726 9.93777C6.14263 10.045 6.1886 10.17 6.20059 10.3005C6.21257 10.431 6.19016 10.5624 6.13558 10.6815C6.081 10.8007 5.99616 10.9034 5.8895 10.9796C5.25493 11.4329 4.55758 11.7912 3.8195 12.0431C5.69 12.4781 7.52225 12.2028 9.02375 11.3403C11.1703 10.1081 12.749 7.6128 12.749 3.99931C12.749 3.88831 12.7738 3.80131 12.7828 3.76906C12.7934 3.73243 12.8059 3.69638 12.8203 3.66106C12.8422 3.60739 12.8662 3.55459 12.8923 3.50281C12.9418 3.40381 13.0078 3.28306 13.0798 3.15556C13.1503 3.02806 13.2403 2.87206 13.3348 2.70781C13.2993 2.72091 13.2635 2.73316 13.2275 2.74456C13.0851 2.78958 12.9325 2.79108 12.7893 2.74886C12.6461 2.70663 12.5187 2.62261 12.4235 2.50756C11.84 1.80256 10.9183 1.57006 10.1128 1.89256C9.299 2.21881 8.73725 3.06106 8.74925 4.02631V4.70431C8.74932 4.89976 8.67309 5.08752 8.53679 5.2276C8.40048 5.36769 8.21488 5.44903 8.0195 5.45431C5.978 5.50981 4.034 4.69831 2.6 3.25606Z" fill="#190041"/>
</svg>
